<svg width="873" height="71" viewBox="0 0 873 71" fill="none" xmlns="http://www.w3.org/2000/svg">
<path d="M18.048 34.144V27.712H27.616V24.032H18.048V18.4H28.832V14.688H18.048V8.928H14.048V14.688H9.12C9.664 13.216 10.176 11.712 10.624 10.176L6.688 9.312C5.6 13.664 3.52 18.08 1.024 20.768C1.984 21.28 3.68 22.432 4.448 23.04C5.504 21.792 6.496 20.16 7.424 18.4H14.048V24.032H5.376V27.712H14.048V34.144H1.696V37.888H30.464V34.144H18.048ZM42.496 14.816V15.936H38.816V17.728H42.08C41.6 18.496 40.64 19.232 38.784 19.712C39.328 20.096 39.904 20.736 40.256 21.28H39.584C38.464 21.28 38.24 20.864 38.24 19.776V12.032H40.544C40.128 13.024 39.392 13.984 38.496 14.784C39.008 15.04 39.968 15.584 40.384 15.904C40.704 15.584 41.056 15.232 41.344 14.816H42.496ZM35.392 19.68C35.392 22.368 36.224 23.488 39.36 23.488H45.728C46.976 23.488 48.32 23.456 48.96 23.264C48.864 22.656 48.768 21.792 48.704 21.056C48 21.216 46.432 21.28 45.472 21.28H40.576C42.208 20.672 43.232 19.904 43.872 19.104C44.96 19.808 46.08 20.64 46.688 21.248L48.16 19.712C47.52 19.168 46.464 18.4 45.376 17.728H48.32V15.936H44.864V14.816H47.808V13.12H42.4C42.528 12.864 42.624 12.64 42.72 12.384L41.248 12.032H48.832V9.856H34.304V12.032H35.392V19.68ZM42.4 33.12V34.976H55.104V33.12H42.4ZM50.016 27.648H47.936V26.656H50.016V27.648ZM56.768 29.632V30.688C56.672 30.688 56.544 30.688 56.384 30.688H53.856C53.088 30.688 52.928 30.624 52.928 29.92V29.632H56.768ZM40.32 35.84V31.296C40.832 31.872 41.376 32.64 41.632 33.152C45.824 32.576 47.552 31.424 47.904 29.632H50.016V29.92C50.016 31.904 50.688 32.448 53.408 32.448H56.768V35.84H40.32ZM44.896 29.632C44.416 30.336 43.2 30.784 40.32 31.008V29.632H44.896ZM51.232 24.224C52.928 23.744 54.56 23.136 56 22.336C57.6 23.008 59.104 23.68 60.224 24.224H51.232ZM63.488 26.656V24.224H60.736L61.92 22.272C60.992 21.824 59.68 21.28 58.272 20.704C59.616 19.52 60.672 18.112 61.376 16.352L59.552 15.616L59.008 15.712H51.584C53.056 14.72 53.632 13.504 53.792 12.224H56.544C56.576 14.368 57.152 15.296 59.488 15.296H61.12C61.696 15.296 62.368 15.264 62.784 15.136C62.656 14.4 62.592 13.408 62.56 12.672C62.176 12.8 61.44 12.832 61.056 12.832H59.936C59.552 12.832 59.488 12.608 59.488 12V9.696H50.976V11.328C50.976 12.416 50.592 13.376 48.128 14.24C48.544 14.528 49.28 15.328 49.76 15.936V17.856H57.344C56.8 18.528 56.16 19.104 55.456 19.616C53.856 19.04 52.32 18.464 50.944 17.984L49.664 19.808C50.656 20.192 51.744 20.608 52.8 21.056C51.584 21.536 50.24 21.92 48.832 22.176C49.312 22.656 49.952 23.552 50.272 24.224H33.76V26.656H45.056V27.648H36.896V38.72H40.32V37.792H56.768V38.72H60.32V27.648H52.928V26.656H63.488ZM76.128 30.176C76.512 29.632 76.864 29.088 77.216 28.512H82.432V30.176H76.128ZM76.576 19.968C78.816 19.488 81.152 18.944 83.456 18.336C85.472 18.88 87.392 19.424 88.96 19.968H76.576ZM87.872 14.432C86.688 14.944 85.216 15.456 83.68 15.872C81.568 15.36 79.456 14.88 77.44 14.432H87.872ZM86.176 34.944V33.088H93.152V30.176H86.176V28.512H94.08V25.536H86.176V23.584H82.432V25.536H78.72C78.912 25.088 79.072 24.672 79.232 24.256L76 23.296C75.2 25.504 73.888 27.552 72.352 29.056C72.48 27.84 72.512 26.72 72.512 25.696V23.008H95.744V19.968H91.04L92.832 18.496C91.392 18.016 89.664 17.504 87.776 16.992C89.216 16.48 90.56 15.936 91.712 15.392L90.176 14.432H94.816V11.456H83.744C83.2 10.496 82.336 9.376 81.6 8.544L79.04 9.792C79.424 10.272 79.872 10.848 80.256 11.456H69.12V14.432H74.624L72.832 15.808C74.72 16.16 76.8 16.608 78.816 17.12C76.352 17.696 73.824 18.144 71.52 18.496C71.968 18.848 72.608 19.424 73.12 19.968H68.8V25.664C68.8 28.96 68.544 33.504 65.952 36.704C66.752 37.12 68.32 38.464 68.896 39.168C71.008 36.576 71.936 32.896 72.32 29.568C72.864 30.464 73.6 32.064 73.824 32.736C74.432 32.16 75.072 31.52 75.648 30.784V33.088H82.432V34.944H72.736V38.016H96.256V34.944H86.176ZM108.544 32.576C106.592 33.76 102.88 34.848 99.68 35.296C100.448 36 101.44 37.248 101.92 38.048C105.216 37.28 109.056 35.616 111.232 33.792L108.544 32.576ZM117.152 34.176C119.84 35.296 123.584 36.992 125.44 38.048L128.128 35.968C126.08 34.944 122.304 33.344 119.712 32.384L117.152 34.176ZM118.496 17.088C118.048 17.856 117.376 18.816 116.864 19.552L118.016 19.904H109.28L111.008 19.488C110.752 18.816 110.24 17.888 109.728 17.088H118.496ZM115.776 28.384V26.976H125.376V24.224H115.776V22.784H126.88V19.904H120.704C121.28 19.328 121.952 18.624 122.656 17.856L119.648 17.088H128.096V14.112H123.968C124.768 12.992 125.632 11.552 126.528 10.08L122.528 9.152C122.08 10.528 121.216 12.48 120.48 13.76L121.632 14.112H118.784V8.896H115.2V14.112H112.8V8.896H109.28V14.112H106.336L107.872 13.536C107.456 12.32 106.4 10.4 105.44 9.056L102.176 10.144C102.912 11.36 103.744 12.896 104.224 14.112H99.872V17.088H108.032L105.888 17.568C106.304 18.272 106.784 19.168 107.072 19.904H101.184V22.784H112V24.224H102.784V26.976H112V28.384H99.808V31.52H112V38.816H115.776V31.52H128.192V28.384H115.776ZM140 31.584H137.12V23.584H140V31.584ZM143.648 13.856V10.4H132.032V13.856H135.424C134.624 18.048 133.312 21.92 131.36 24.544C131.872 25.632 132.512 28.064 132.64 29.088C133.088 28.544 133.536 27.936 133.952 27.328V37.28H137.12V34.944H143.232V20.224H137.248C137.952 18.176 138.528 16 138.944 13.856H143.648ZM150.944 21.92V14.016H154.528V21.92H150.944ZM161.504 21.92H158.144V14.016H160.864V10.496H145.184V14.016H147.392V21.92H144.352V25.504H147.328C147.136 29.408 146.336 33.856 143.584 36.832C144.448 37.312 145.824 38.368 146.464 39.04C149.76 35.552 150.688 30.208 150.88 25.504H154.528V38.816H158.144V25.504H161.504V21.92ZM186.88 30.24C186.304 31.072 185.632 31.808 184.864 32.48C183.424 31.68 181.952 30.944 180.608 30.24H186.88ZM189.152 27.616L188.576 27.712H178.176V30.24H178.944L177.664 31.776C179.04 32.512 180.544 33.376 182.112 34.24C180.448 35.072 178.496 35.68 176.416 36.032C177.024 36.736 177.696 37.952 178.016 38.784C180.672 38.176 183.136 37.28 185.152 36.032C186.88 37.056 188.416 38.048 189.504 38.816L191.424 36.288C190.464 35.648 189.152 34.848 187.712 34.048C189.248 32.544 190.432 30.688 191.232 28.352L189.152 27.616ZM190.816 12.256C189.952 13.28 188.48 14.624 187.264 15.584C186.688 15.136 186.112 14.656 185.568 14.144C186.784 13.28 188.16 12.128 189.472 11.04L186.752 9.088C185.984 9.984 184.8 11.136 183.744 12.032C183.008 11.136 182.4 10.112 181.92 9.024L178.88 9.92C180.416 13.344 182.56 16.192 185.344 18.4H179.232V20.672C179.232 22.112 178.944 23.648 176.96 24.96V18.592H172.768C175.36 16.64 177.504 14.144 178.784 11.008L176.448 9.856L175.808 10.016H167.456V12.992H173.76C173.216 13.728 172.576 14.4 171.904 15.04C170.976 14.336 169.632 13.568 168.544 13.024L166.368 15.04C167.328 15.584 168.48 16.32 169.344 16.96C167.68 18.016 165.856 18.88 163.968 19.424C164.64 20.096 165.568 21.376 166.016 22.208C167.008 21.856 167.968 21.44 168.928 20.96V21.472H173.568V23.712H167.904C167.616 26.24 167.104 29.408 166.656 31.488H173.376C173.152 33.664 172.864 34.688 172.48 35.04C172.192 35.328 171.84 35.36 171.328 35.36C170.624 35.36 169.056 35.328 167.456 35.2C168.032 36.064 168.48 37.376 168.544 38.368C170.24 38.432 171.904 38.432 172.768 38.336C173.888 38.272 174.656 38.016 175.328 37.28C176.16 36.448 176.544 34.368 176.896 30.048C176.928 29.6 176.96 28.736 176.96 28.736H170.304C170.4 28.032 170.496 27.264 170.624 26.528H176.96V25.568C177.6 26.144 178.528 27.072 178.88 27.616C181.536 25.92 182.304 23.52 182.4 21.28H185.344V23.136C185.344 25.728 185.856 26.816 188.544 26.816H190.528C191.2 26.816 191.936 26.784 192.384 26.624C192.256 25.888 192.192 24.8 192.128 24.032C191.712 24.16 190.944 24.192 190.496 24.192H188.928C188.512 24.192 188.448 23.936 188.448 23.168V20.416C189.6 21.024 190.784 21.536 192.096 21.952C192.608 21.024 193.568 19.68 194.368 18.944C192.736 18.496 191.2 17.888 189.792 17.152C190.976 16.32 192.352 15.296 193.568 14.208L190.816 12.256ZM213.792 25.056V18.176H221.024V25.056H213.792ZM202.56 25.056V18.176H209.76V25.056H202.56ZM213.792 14.432V8.896H209.76V14.432H198.72V30.56H202.56V28.8H209.76V38.784H213.792V28.8H221.024V30.4H225.024V14.432H213.792ZM239.04 12C242.016 14.016 245.952 17.056 247.68 19.008L250.496 16.032C248.576 14.048 244.512 11.232 241.632 9.408L239.04 12ZM252.032 20.32C253.696 24.064 255.36 29.12 255.84 32.384L259.712 30.784C259.04 27.488 257.376 22.688 255.584 18.88L252.032 20.32ZM232.192 19.904C231.776 24.16 230.848 28.96 229.728 32.352L233.568 33.888C234.656 30.272 235.456 24.736 235.904 20.608L232.192 19.904ZM237.952 18.016V32.864C237.952 36.896 239.104 38.176 243.264 38.176H248.576C252.512 38.176 253.536 36.288 253.984 30.208C252.928 29.952 251.296 29.28 250.4 28.608C250.176 33.6 249.888 34.624 248.288 34.624H243.712C242.176 34.624 241.92 34.368 241.92 32.864V18.016H237.952ZM271.664 36H278.552C283.116 36 286.448 34.04 286.448 29.952C286.448 27.152 284.74 25.556 282.388 25.052V24.912C284.236 24.296 285.328 22.42 285.328 20.46C285.328 16.736 282.276 15.392 278.048 15.392H271.664V36ZM274.912 23.988V17.912H277.768C280.68 17.912 282.136 18.724 282.136 20.88C282.136 22.812 280.82 23.988 277.684 23.988H274.912ZM274.912 33.452V26.452H278.188C281.464 26.452 283.256 27.46 283.256 29.784C283.256 32.304 281.408 33.452 278.188 33.452H274.912ZM290.619 36H293.811V20.6H290.619V36ZM292.215 17.716C293.391 17.716 294.287 16.932 294.287 15.812C294.287 14.664 293.391 13.908 292.215 13.908C291.039 13.908 290.171 14.664 290.171 15.812C290.171 16.932 291.039 17.716 292.215 17.716ZM305.378 36.364C309.186 36.364 312.63 33.424 312.63 28.328C312.63 23.176 309.186 20.208 305.378 20.208C301.57 20.208 298.126 23.176 298.126 28.328C298.126 33.424 301.57 36.364 305.378 36.364ZM305.378 33.732C302.97 33.732 301.458 31.576 301.458 28.328C301.458 25.052 302.97 22.868 305.378 22.868C307.814 22.868 309.326 25.052 309.326 28.328C309.326 31.576 307.814 33.732 305.378 33.732ZM316.978 36H320.17V25.08C321.458 23.68 322.606 22.98 323.642 22.98C325.406 22.98 326.218 24.044 326.218 26.704V36H329.438V25.08C330.726 23.68 331.846 22.98 332.91 22.98C334.646 22.98 335.486 24.044 335.486 26.704V36H338.706V26.312C338.706 22.392 337.194 20.208 333.974 20.208C332.042 20.208 330.474 21.412 328.962 23.036C328.29 21.272 327.002 20.208 324.706 20.208C322.802 20.208 321.262 21.356 319.946 22.756H319.862L319.61 20.6H316.978V36ZM350.336 36.364C352.352 36.364 354.116 35.692 355.544 34.74L354.424 32.696C353.304 33.424 352.128 33.844 350.756 33.844C348.096 33.844 346.248 32.08 345.996 29.14H355.992C356.076 28.776 356.132 28.132 356.132 27.516C356.132 23.148 353.948 20.208 349.86 20.208C346.248 20.208 342.832 23.316 342.832 28.328C342.832 33.396 346.164 36.364 350.336 36.364ZM345.968 26.928C346.276 24.212 347.984 22.728 349.916 22.728C352.156 22.728 353.36 24.268 353.36 26.928H345.968ZM365.636 36.364C367.372 36.364 368.968 35.44 370.116 34.264H370.2L370.48 36H373.112V13.684H369.892V19.396L370.032 21.944C368.772 20.88 367.652 20.208 365.888 20.208C362.444 20.208 359.28 23.316 359.28 28.328C359.28 33.424 361.772 36.364 365.636 36.364ZM366.392 33.704C363.984 33.704 362.612 31.772 362.612 28.272C362.612 24.94 364.348 22.896 366.504 22.896C367.652 22.896 368.744 23.26 369.892 24.296V31.828C368.772 33.116 367.68 33.704 366.392 33.704ZM378.513 36H381.705V20.6H378.513V36ZM380.109 17.716C381.285 17.716 382.181 16.932 382.181 15.812C382.181 14.664 381.285 13.908 380.109 13.908C378.933 13.908 378.065 14.664 378.065 15.812C378.065 16.932 378.933 17.716 380.109 17.716ZM393.384 36.364C395.148 36.364 396.968 35.72 398.368 34.46L397.052 32.332C396.128 33.116 394.98 33.732 393.692 33.732C391.116 33.732 389.352 31.576 389.352 28.328C389.352 25.052 391.2 22.868 393.776 22.868C394.84 22.868 395.708 23.316 396.548 24.072L398.144 21.972C397.024 20.992 395.596 20.208 393.636 20.208C389.576 20.208 386.02 23.176 386.02 28.328C386.02 33.424 389.212 36.364 393.384 36.364ZM405.476 36.364C407.324 36.364 408.976 35.44 410.376 34.236H410.46L410.74 36H413.372V26.732C413.372 22.644 411.608 20.208 407.772 20.208C405.308 20.208 403.152 21.216 401.556 22.224L402.76 24.408C404.076 23.568 405.588 22.84 407.212 22.84C409.48 22.84 410.124 24.408 410.152 26.2C403.74 26.9 400.94 28.608 400.94 31.912C400.94 34.628 402.816 36.364 405.476 36.364ZM406.456 33.816C405.084 33.816 404.048 33.2 404.048 31.688C404.048 29.952 405.588 28.804 410.152 28.244V32.024C408.892 33.172 407.8 33.816 406.456 33.816ZM421.694 36.364C422.478 36.364 423.038 36.252 423.43 36.112L423.01 33.676C422.73 33.732 422.618 33.732 422.478 33.732C422.086 33.732 421.694 33.424 421.694 32.556V13.684H418.502V32.388C418.502 34.88 419.37 36.364 421.694 36.364ZM434.531 36H437.779V15.392H434.531V36ZM443.451 36H446.643V25.08C448.015 23.708 448.995 22.98 450.423 22.98C452.243 22.98 453.027 24.044 453.027 26.704V36H456.247V26.312C456.247 22.392 454.791 20.208 451.515 20.208C449.415 20.208 447.847 21.356 446.419 22.728H446.335L446.083 20.6H443.451V36ZM466.804 36.364C468.54 36.364 470.136 35.44 471.284 34.264H471.368L471.648 36H474.28V13.684H471.06V19.396L471.2 21.944C469.94 20.88 468.82 20.208 467.056 20.208C463.612 20.208 460.448 23.316 460.448 28.328C460.448 33.424 462.94 36.364 466.804 36.364ZM467.56 33.704C465.152 33.704 463.78 31.772 463.78 28.272C463.78 24.94 465.516 22.896 467.672 22.896C468.82 22.896 469.912 23.26 471.06 24.296V31.828C469.94 33.116 468.848 33.704 467.56 33.704ZM484.189 36.364C486.317 36.364 487.829 35.3 489.229 33.676H489.313L489.565 36H492.197V20.6H488.977V31.296C487.689 32.92 486.709 33.592 485.281 33.592C483.461 33.592 482.705 32.556 482.705 29.896V20.6H479.485V30.288C479.485 34.208 480.913 36.364 484.189 36.364ZM501.776 36.364C505.584 36.364 507.628 34.264 507.628 31.688C507.628 28.776 505.248 27.824 503.092 27.012C501.412 26.396 499.816 25.892 499.816 24.576C499.816 23.512 500.6 22.672 502.28 22.672C503.568 22.672 504.66 23.232 505.724 24.016L507.236 22.028C505.976 21.048 504.296 20.208 502.224 20.208C498.836 20.208 496.764 22.14 496.764 24.716C496.764 27.32 499.116 28.412 501.16 29.196C502.84 29.84 504.576 30.456 504.576 31.856C504.576 33.032 503.708 33.928 501.86 33.928C500.208 33.928 498.864 33.256 497.492 32.164L495.98 34.236C497.464 35.468 499.648 36.364 501.776 36.364ZM516.168 36.364C517.288 36.364 518.324 36.084 519.192 35.804L518.604 33.424C518.156 33.62 517.484 33.788 516.952 33.788C515.356 33.788 514.712 32.836 514.712 30.988V23.176H518.716V20.6H514.712V16.344H511.996L511.632 20.6L509.252 20.768V23.176H511.492V30.96C511.492 34.208 512.696 36.364 516.168 36.364ZM522.65 36H525.842V26.396C526.822 23.96 528.334 23.092 529.594 23.092C530.21 23.092 530.602 23.176 531.134 23.344L531.722 20.544C531.246 20.32 530.742 20.208 529.986 20.208C528.334 20.208 526.71 21.384 525.618 23.372H525.534L525.282 20.6H522.65V36ZM547.728 20.6H544.592L542.128 28.524L540.924 32.864H540.784C540.308 31.436 539.832 29.896 539.384 28.524L536.528 20.6H533.224L539.328 35.888L539.02 36.952C538.46 38.604 537.48 39.836 535.8 39.836C535.408 39.836 534.96 39.696 534.68 39.612L534.064 42.132C534.596 42.328 535.212 42.44 535.996 42.44C539.244 42.44 540.868 40.228 542.072 36.924L547.728 20.6ZM561.463 17.996H564.571C567.567 17.996 569.191 18.864 569.191 21.356C569.191 23.848 567.567 25.08 564.571 25.08H561.463V17.996ZM573.139 36L568.099 27.264C570.703 26.452 572.411 24.548 572.411 21.356C572.411 16.904 569.219 15.392 564.963 15.392H558.215V36H561.463V27.684H564.795L569.471 36H573.139ZM578.439 30.428C578.439 29.028 579.391 27.936 580.651 26.872C582.023 28.888 583.843 30.82 585.747 32.444C584.655 33.312 583.423 33.844 582.191 33.844C580.063 33.844 578.439 32.472 578.439 30.428ZM580.707 20.012C580.707 18.388 581.659 17.24 583.031 17.24C584.291 17.24 584.823 18.164 584.823 19.284C584.823 20.992 583.367 22.112 581.575 23.26C581.043 22.14 580.707 21.02 580.707 20.012ZM593.643 33.732C592.551 33.452 591.235 32.836 589.863 31.968C591.487 29.84 592.663 27.376 593.447 24.716H590.479C589.863 26.928 588.911 28.86 587.707 30.428C585.887 28.972 584.123 27.152 582.807 25.304C585.075 23.68 587.371 21.972 587.371 19.256C587.371 16.736 585.719 15 583.003 15C579.979 15 577.991 17.24 577.991 20.04C577.991 21.468 578.495 23.064 579.335 24.688C577.235 26.088 575.359 27.796 575.359 30.624C575.359 33.872 577.851 36.364 581.799 36.364C584.291 36.364 586.307 35.496 587.931 34.096C589.611 35.216 591.319 36 592.831 36.364L593.643 33.732ZM597.425 36H602.941C609.101 36 612.713 32.304 612.713 25.612C612.713 18.892 609.101 15.392 602.773 15.392H597.425V36ZM600.673 33.34V18.024H602.549C606.973 18.024 609.353 20.46 609.353 25.612C609.353 30.736 606.973 33.34 602.549 33.34H600.673ZM632.448 36.364C635.108 36.364 637.208 35.3 638.86 33.396L637.124 31.352C635.892 32.696 634.436 33.536 632.56 33.536C628.92 33.536 626.624 30.54 626.624 25.64C626.624 20.796 629.088 17.828 632.644 17.828C634.324 17.828 635.612 18.584 636.676 19.676L638.44 17.604C637.18 16.232 635.164 15 632.588 15C627.38 15 623.292 19.032 623.292 25.752C623.292 32.5 627.268 36.364 632.448 36.364ZM649.206 36.364C651.222 36.364 652.986 35.692 654.414 34.74L653.294 32.696C652.174 33.424 650.998 33.844 649.626 33.844C646.966 33.844 645.118 32.08 644.866 29.14H654.862C654.946 28.776 655.002 28.132 655.002 27.516C655.002 23.148 652.818 20.208 648.73 20.208C645.118 20.208 641.702 23.316 641.702 28.328C641.702 33.396 645.034 36.364 649.206 36.364ZM644.838 26.928C645.146 24.212 646.854 22.728 648.786 22.728C651.026 22.728 652.23 24.268 652.23 26.928H644.838ZM659.186 36H662.378V25.08C663.75 23.708 664.73 22.98 666.158 22.98C667.978 22.98 668.762 24.044 668.762 26.704V36H671.982V26.312C671.982 22.392 670.526 20.208 667.25 20.208C665.15 20.208 663.582 21.356 662.154 22.728H662.07L661.818 20.6H659.186V36ZM682.398 36.364C683.518 36.364 684.554 36.084 685.422 35.804L684.834 33.424C684.386 33.62 683.714 33.788 683.182 33.788C681.586 33.788 680.942 32.836 680.942 30.988V23.176H684.946V20.6H680.942V16.344H678.226L677.862 20.6L675.482 20.768V23.176H677.722V30.96C677.722 34.208 678.926 36.364 682.398 36.364ZM694.827 36.364C696.843 36.364 698.607 35.692 700.035 34.74L698.915 32.696C697.795 33.424 696.619 33.844 695.247 33.844C692.587 33.844 690.739 32.08 690.487 29.14H700.483C700.567 28.776 700.623 28.132 700.623 27.516C700.623 23.148 698.439 20.208 694.351 20.208C690.739 20.208 687.323 23.316 687.323 28.328C687.323 33.396 690.655 36.364 694.827 36.364ZM690.459 26.928C690.767 24.212 692.475 22.728 694.407 22.728C696.647 22.728 697.851 24.268 697.851 26.928H690.459ZM704.807 36H707.999V26.396C708.979 23.96 710.491 23.092 711.751 23.092C712.367 23.092 712.759 23.176 713.291 23.344L713.879 20.544C713.403 20.32 712.899 20.208 712.143 20.208C710.491 20.208 708.867 21.384 707.775 23.372H707.691L707.439 20.6H704.807V36ZM7.304 57.628H14.784V58.948H7.304V57.628ZM14.784 52.15V53.382H7.304V52.15H14.784ZM7.304 54.878H14.784V56.132H7.304V54.878ZM21.01 60.642V58.948H16.874V52.15H20.02V50.478H16.874V48.586H14.784V50.478H7.304V48.564H5.258V50.478H2.068V52.15H5.258V58.948H0.99V60.642H5.522C4.268 62.006 2.508 63.238 0.77 63.898C1.21 64.25 1.804 64.976 2.09 65.46C3.344 64.866 4.62 64.03 5.72 63.04V64.492H9.922V66.45H2.816V68.144H19.382V66.45H11.99V64.492H16.346V62.864H11.99V61.214H9.922V62.864H5.896C6.622 62.182 7.304 61.412 7.832 60.642H14.388C15.73 62.556 17.82 64.294 19.932 65.218C20.24 64.734 20.834 64.008 21.274 63.634C19.58 63.04 17.842 61.918 16.61 60.642H21.01ZM39.534 57.188V55.362H34.452C34.54 54.328 34.584 53.228 34.628 52.084H32.626C32.604 53.25 32.56 54.328 32.472 55.362H27.346V57.188H32.23C31.724 60.136 30.492 62.38 27.28 63.766C27.72 64.14 28.292 64.91 28.534 65.416C31.24 64.184 32.736 62.336 33.55 60.048C35.354 61.742 37.18 63.766 38.17 65.152L39.622 63.92C38.478 62.336 36.146 59.982 34.056 58.222C34.122 57.892 34.166 57.54 34.232 57.188H39.534ZM26.18 65.988V51.226H40.7V65.988H26.18ZM24.266 49.378V68.716H26.18V67.682H40.7V68.716H42.68V49.378H24.266ZM63.668 52.898H62.172V51.578H63.668V52.898ZM63.668 55.56H62.172V54.218H63.668V55.56ZM56.738 54.218H58.19V55.56H56.738V54.218ZM56.738 51.578H58.19V52.898H56.738V51.578ZM60.874 54.218V55.56H59.488V54.218H60.874ZM59.488 52.898V51.578H60.874V52.898H59.488ZM65.274 50.192H62.436V48.564H60.808V50.192H59.488V48.564H57.86V50.192H55.176V56.968H65.274V50.192ZM65.802 57.936H54.78V59.454H65.802V57.936ZM48.774 61.06C49.522 61.566 50.446 62.358 50.908 62.842L51.832 61.786C51.37 61.324 50.424 60.62 49.588 60.114L48.774 60.95V59.432H51.854V62.952C50.666 63.546 49.544 64.118 48.664 64.492C48.752 63.656 48.774 62.864 48.774 62.16V61.06ZM48.532 50.786H51.942V51.952H49.654V55.406H48.532V50.786ZM50.776 55.406V53.184H51.942V55.406H50.776ZM52.976 58.024H47.52V56.836H52.976V58.024ZM54.538 58.662V55.406H53.636V49.268H46.926V55.406H46.024V58.662H47.102V62.138C47.102 63.876 46.992 66.12 45.87 67.792C46.266 67.968 47.014 68.496 47.3 68.826C48.092 67.66 48.444 66.142 48.642 64.668L49.258 65.9C50.072 65.416 50.952 64.866 51.854 64.316V66.802C51.854 67.022 51.788 67.088 51.568 67.088C51.326 67.11 50.644 67.11 49.852 67.088C50.072 67.506 50.314 68.166 50.402 68.628C51.59 68.628 52.36 68.606 52.888 68.342C53.416 68.056 53.57 67.638 53.57 66.824V58.662H54.538ZM62.062 64.514C61.864 65.152 61.512 66.076 61.182 66.802H59.246C59.026 66.142 58.652 65.24 58.3 64.514H62.062ZM57.53 61.676H62.898V63.216H57.53V61.676ZM62.876 66.802C63.206 66.23 63.536 65.592 63.91 64.976L62.238 64.514H64.812V60.356H55.748V64.514H58.234L56.76 64.954C57.002 65.526 57.244 66.208 57.442 66.802H54.538V68.342H66V66.802H62.876ZM83.006 53.03C82.28 52.106 80.762 50.83 79.508 49.972L78.166 51.138C79.42 52.062 80.916 53.404 81.576 54.328L83.006 53.03ZM82.412 58.772C81.642 57.848 79.97 56.528 78.65 55.648L77.352 56.836C78.694 57.76 80.3 59.168 81.026 60.114L82.412 58.772ZM76.736 60.4C76.318 59.828 74.448 57.584 73.788 56.902V56.594H76.868V54.68H73.788V51.314C74.822 51.072 75.79 50.808 76.626 50.478L75.46 48.806C73.744 49.554 70.928 50.192 68.464 50.588C68.684 51.006 68.97 51.732 69.036 52.172C69.916 52.04 70.862 51.908 71.808 51.732V54.68H68.288V56.594H71.522C70.708 58.926 69.3 61.544 68.002 63.04C68.31 63.546 68.794 64.382 68.992 64.932C70.004 63.678 70.994 61.808 71.808 59.806V68.716H73.788V59.102C74.448 60.114 75.196 61.346 75.504 62.006L76.736 60.4ZM88.528 62.622L88.22 60.708L85.822 61.104V48.542H83.798V61.434L76.56 62.644L76.868 64.602L83.798 63.436V68.716H85.822V63.084L88.528 62.622ZM103.29 51.38C102.938 51.072 102.476 50.742 101.948 50.412C102.388 49.994 102.762 49.554 103.092 49.114L101.706 48.74C101.464 49.048 101.156 49.4 100.782 49.708C100.298 49.422 99.77 49.158 99.308 48.938L98.318 49.796C98.78 49.994 99.264 50.258 99.704 50.522C99.154 50.918 98.516 51.27 97.9 51.534C98.252 51.754 98.78 52.26 99.022 52.48C99.638 52.172 100.298 51.732 100.914 51.27C101.464 51.622 101.948 51.974 102.278 52.304L103.29 51.38ZM94.952 55.34H97.724C98.032 55.56 98.538 56.066 98.758 56.352H94.996L94.952 55.34ZM93.346 57.892H108.152V60.554H110.176V56.352H108.504C108.68 54.372 108.878 51.556 108.988 49.334H103.752V50.676H106.986L106.942 51.666H103.862V52.986H106.854L106.766 53.998H103.752V55.34H106.678C106.634 55.692 106.59 56.022 106.568 56.352H98.89C99.528 55.978 100.232 55.56 100.87 55.054C101.486 55.472 101.992 55.868 102.344 56.22L103.378 55.274C103.004 54.922 102.52 54.548 101.926 54.152C102.388 53.712 102.784 53.272 103.136 52.81L101.75 52.37C101.486 52.744 101.156 53.096 100.76 53.448C100.254 53.14 99.704 52.854 99.22 52.612L98.23 53.47C98.692 53.69 99.198 53.976 99.66 54.262C99.088 54.658 98.428 55.01 97.812 55.296V53.998H94.842L94.776 52.986H97.724V51.666H94.71L94.644 50.786C95.744 50.588 96.932 50.28 97.878 49.928L96.998 48.718C95.854 49.07 93.962 49.62 92.686 49.84L93.082 56.352H91.41V60.554H93.346V57.892ZM110.55 62.908H101.992V62.732C103.664 62.006 105.38 61.06 106.656 60.07L105.49 59.014L105.05 59.124H95.084V60.62H102.96C102.036 61.192 100.958 61.72 99.99 62.116V62.908H90.97V64.58H99.99V66.626C99.99 66.912 99.88 67 99.528 67C99.198 67 97.922 67 96.712 66.956C96.976 67.44 97.262 68.166 97.372 68.694C99.088 68.694 100.21 68.694 101.002 68.408C101.772 68.144 101.992 67.66 101.992 66.692V64.58H110.55V62.908ZM125.18 53.162C125.312 52.37 125.466 51.512 125.576 50.72H127.358C127.314 51.622 127.248 52.436 127.138 53.162H125.18ZM127.82 57.298C127.82 58.706 128.15 59.124 129.69 59.124H131.494C132.616 59.124 133.034 58.64 133.188 56.682C132.77 56.594 132.132 56.374 131.824 56.132C131.78 57.584 131.692 57.76 131.274 57.76H129.91C129.47 57.76 129.382 57.694 129.382 57.276V55.164H128.458C128.502 55.01 128.546 54.856 128.59 54.68H132.726V53.162H128.854C128.964 52.414 129.03 51.6 129.074 50.72H132.506V49.268H123.288V50.72H123.948C123.772 52.04 123.53 53.624 123.31 54.68H126.808C126.214 56.462 125.004 57.584 122.43 58.354C122.782 58.662 123.244 59.344 123.42 59.762C125.664 59.036 127.006 58.024 127.82 56.594V57.298ZM118.338 63.282H128.326V64.58H118.338V63.282ZM118.338 60.95H128.326V62.248H118.338V60.95ZM116.402 65.702H130.35V59.828H116.402V65.702ZM120.758 50.522V51.6H116.446V50.522H120.758ZM116.446 53.976V52.788H120.758V53.976H116.446ZM122.518 58.662C122.166 57.76 121.44 56.418 120.692 55.406L119.306 55.912C119.526 56.242 119.746 56.594 119.966 56.968L116.446 57.606V55.296H122.408V49.202H114.664V56.946C114.664 57.804 114.114 58.156 113.718 58.332C113.96 58.64 114.268 59.256 114.356 59.652C114.796 59.41 115.478 59.256 120.626 58.244C120.802 58.618 120.934 58.97 121.044 59.256L122.518 58.662ZM113.432 68.188H133.012V66.582H113.432V68.188ZM138.094 62.072V63.568H141.68V62.072H138.094ZM151.228 59.52V58.2H153.12V59.52H151.228ZM151.228 55.494H153.12V56.77H151.228V55.494ZM152.878 66.384H148.346V63.964H152.878V66.384ZM137.61 65.526V60.708C137.83 60.884 138.072 61.104 138.182 61.236C139.282 60.092 139.524 58.398 139.524 57.122V55.23H140.338V58.618C140.338 59.784 140.602 60.048 141.504 60.048H142.208V65.526H137.61ZM138.446 55.23V57.1C138.446 58.09 138.314 59.212 137.61 60.18V55.23H138.446ZM139.524 51.116H140.338V53.536H139.524V51.116ZM142.208 58.904H142.12H141.614C141.438 58.904 141.394 58.882 141.394 58.596V55.23H142.208V58.904ZM155.716 56.616H154.638V54.02H151.228V52.766H149.534V54.02H146.938V55.494H149.534V56.77H146.3V52.436H155.496V50.786H151.404C151.162 50.104 150.722 49.158 150.282 48.432L148.434 48.894C148.72 49.466 149.072 50.17 149.292 50.786H144.584V58.882C144.584 61.434 144.518 64.668 143.616 67.11V53.536H141.702V51.116H143.946V49.488H135.784V51.116H138.138V53.536H136.224V68.694H137.61V67.154H142.208V68.364H143.616V67.748C144.034 67.99 144.584 68.452 144.848 68.738C146.102 66.01 146.3 61.83 146.3 58.882V58.2H149.534V59.52H146.85V60.994H149.534V62.358H146.652V68.738H148.346V67.99H152.878V68.694H154.638V62.358H151.228V60.994H154.638V58.31H155.716V56.616ZM163.746 53.36V55.824H165.55V53.36H167.86V51.798H161.656C161.678 51.6 161.678 51.424 161.678 51.27V50.83C163.746 50.676 165.968 50.346 167.508 49.84L166.298 48.608C164.846 49.092 162.184 49.422 159.896 49.576V51.248C159.896 52.48 159.654 54.02 158.07 55.23C158.422 55.472 159.17 56.176 159.412 56.55C160.534 55.648 161.15 54.504 161.414 53.36H163.746ZM163.13 62.6H172.964V63.92H163.13V62.6ZM163.13 60.07H172.964V61.346H163.13V60.07ZM163.13 57.54H172.964V58.838H163.13V57.54ZM175.032 65.218V56.242H161.15V65.218H164.692C163.042 65.966 160.446 66.692 158.4 67.132C158.686 67.528 159.214 68.474 159.39 68.87C161.59 68.21 164.472 67.088 166.298 66.054L164.824 65.218H170.896L170.126 66.45C172.59 67.154 175.142 68.1 176.704 68.826L177.672 67.352C176.088 66.714 173.602 65.856 171.248 65.218H175.032ZM170.5 51.798C170.522 51.578 170.522 51.38 170.522 51.204V50.786C172.766 50.632 175.23 50.302 176.902 49.774L175.582 48.608C174.064 49.092 171.204 49.4 168.806 49.532V51.16C168.806 52.37 168.586 53.932 167.244 55.208C167.662 55.384 168.432 55.912 168.74 56.22C169.598 55.406 170.06 54.394 170.28 53.36H172.744V55.868L174.57 55.89V53.36H177.848V51.798H170.5ZM191.598 65.086V53.03H199.254V50.918H181.874V53.03H189.31V65.086H180.708V67.132H200.398V65.086H191.598ZM219.824 55.032H213.576V51.336H219.824V55.032ZM221.804 49.598H211.662V56.77H221.804V49.598ZM210.76 60.642C210.386 60.092 208.67 57.826 208.076 57.122V56.66H210.738V54.768H208.076V51.16C208.956 50.918 209.814 50.676 210.54 50.368L209.396 48.696C207.878 49.422 205.392 50.038 203.192 50.456C203.434 50.896 203.654 51.6 203.742 52.04C204.512 51.93 205.326 51.798 206.14 51.644V54.768H202.928V56.66H205.656C204.952 58.992 203.742 61.61 202.598 63.106C202.906 63.634 203.39 64.536 203.544 65.108C204.512 63.788 205.414 61.742 206.14 59.63V68.76H208.076V59.366C208.67 60.422 209.33 61.632 209.616 62.314L210.76 60.642ZM217.822 66.428V63.898H222.046V62.138H217.822V59.63C219.274 59.432 220.66 59.19 221.782 58.882L220.484 57.342C218.394 57.958 214.764 58.354 211.684 58.552C211.882 58.992 212.146 59.696 212.168 60.136C213.312 60.092 214.566 60.004 215.798 59.872V62.138H211.508V63.898H215.798V66.428H210.342V68.254H222.926V66.428H217.822ZM228.074 52.018H242.682V54.02H244.618V50.39H236.588C236.302 49.752 235.862 48.96 235.4 48.388L233.64 48.894C233.904 49.334 234.212 49.862 234.454 50.39H226.226V54.02H228.074V52.018ZM230.428 63.744H240.416V64.624H230.428V63.744ZM230.428 61.808H240.416V62.666H230.428V61.808ZM230.428 59.916H240.416V60.752H230.428V59.916ZM242.484 65.746V58.794H228.448V65.746H232.21C230.692 66.406 228.052 67.11 225.918 67.396C226.27 67.792 226.776 68.43 227.018 68.804C229.482 68.43 232.474 67.594 234.278 66.626L232.98 65.746H237.446L236.588 66.692C239.096 67.374 241.692 68.232 243.232 68.826L244.618 67.528C243.122 67.022 240.834 66.318 238.59 65.746H242.484ZM236.038 56.902C236.06 56.594 236.104 56.286 236.148 55.956H239.69L239.602 56.902H236.038ZM230.846 55.956H234.432C234.41 56.286 234.366 56.594 234.322 56.902H230.736L230.846 55.956ZM234.63 54.02L234.564 54.856H231L231.11 54.02H234.63ZM239.778 54.856H236.258L236.346 54.02H239.844L239.778 54.856ZM241.67 54.658L241.846 52.898H229.438L229.218 54.658H225.544V56.154H229.02L228.778 58.002H241.362L241.538 56.154H245.322V54.658H241.67ZM248.776 67.286C249.15 66.01 249.458 63.898 249.634 62.446L248.534 62.094C248.38 63.524 248.028 65.592 247.588 66.846L248.776 67.286ZM249.964 62.534C250.074 63.766 250.162 65.416 250.162 66.494L251.152 66.384C251.13 65.306 251.042 63.7 250.888 62.424L249.964 62.534ZM251.262 62.314C251.548 63.458 251.856 64.91 251.988 65.9L252.912 65.702C252.78 64.756 252.45 63.282 252.164 62.16L251.262 62.314ZM250.36 57.716H252.032V59.454H250.36V57.716ZM252.032 51.16V52.92H250.36V51.16H252.032ZM252.032 56.132H250.36V54.482H252.032V56.132ZM259.424 53.404C260.326 52.656 261.184 51.82 261.932 50.918C262.768 51.776 263.758 52.656 264.792 53.404H259.424ZM256.234 59.454H253.638V57.716H255.816V56.132H253.638V54.482H255.772V53.844C256.146 54.174 256.718 54.746 256.982 55.098C257.576 54.746 258.148 54.35 258.72 53.954V54.988H265.21V53.712C265.87 54.196 266.574 54.614 267.212 54.966C267.366 54.46 267.74 53.602 268.026 53.14C266.288 52.37 264.242 50.962 262.9 49.62C263.076 49.4 263.208 49.158 263.34 48.916L261.47 48.322C260.348 50.302 258.17 52.392 255.772 53.756V52.92H253.638V51.16H256.146V49.488H248.754V61.148H254.584C254.54 62.534 254.496 63.634 254.452 64.448C254.232 63.722 253.77 62.6 253.352 61.742L252.56 62.006C252.956 62.908 253.418 64.118 253.638 64.888L254.452 64.558C254.342 66.032 254.232 66.692 254.078 66.934C253.946 67.132 253.792 67.176 253.528 67.176C253.286 67.176 252.758 67.176 252.142 67.088C252.384 67.528 252.538 68.188 252.582 68.672C253.242 68.694 253.924 68.694 254.32 68.628C254.848 68.562 255.156 68.408 255.464 67.99C255.926 67.374 256.08 65.46 256.234 60.158V59.454ZM263.78 57.826H265.562V60.268H263.78V57.826ZM262.372 61.632H267.036V56.462H262.372V61.632ZM258.39 57.826H260.04V60.268H258.39V57.826ZM257.004 61.632H261.492V56.462H257.004V61.632ZM258.544 62.182C258.082 64.382 257.158 66.362 255.75 67.572C256.146 67.858 256.828 68.452 257.114 68.738C257.906 67.968 258.632 66.934 259.182 65.768C259.886 66.296 260.634 66.89 261.008 67.352L262.064 66.01C261.58 65.46 260.656 64.778 259.798 64.25C259.974 63.678 260.15 63.128 260.282 62.512L258.544 62.182ZM263.934 62.094C263.538 64.338 262.68 66.34 261.294 67.572C261.734 67.858 262.482 68.43 262.79 68.738C263.406 68.122 263.978 67.352 264.418 66.472C265.276 67.132 266.156 67.858 266.618 68.43L267.85 67.022C267.256 66.406 266.134 65.526 265.122 64.822C265.386 64.074 265.606 63.26 265.76 62.38L263.934 62.094ZM272.844 52.26H287.65V54.394H289.74V50.412H281.754C281.534 49.774 281.094 48.938 280.72 48.3L278.718 48.85C278.982 49.334 279.246 49.884 279.444 50.412H270.842V54.394H272.844V52.26ZM283.932 55.692L282.524 56.616C282.986 57.012 283.514 57.452 284.02 57.892L276.496 58.42C277.596 57.606 278.674 56.66 279.686 55.692H283.932ZM288.31 59.608C287.43 58.486 285.604 56.858 284.108 55.692H287.54V53.932H273.152V55.692H277.068C275.968 56.748 274.89 57.606 274.45 57.892C273.878 58.332 273.394 58.618 272.954 58.684C273.174 59.19 273.438 60.114 273.526 60.51C274.296 60.202 275.418 60.136 285.494 59.3C286 59.828 286.418 60.29 286.726 60.708L288.31 59.608ZM281.292 66.318V63.832H288.134V62.072H281.292V60.048H279.202V62.072H272.602V63.832H279.202V66.318H270.666V68.122H289.982V66.318H281.292ZM297.365 70.96H299.125L305.241 49.444H303.481L297.365 70.96ZM315.147 54.592C314.949 53.36 314.487 51.446 314.003 49.994L312.551 50.324C312.991 51.798 313.431 53.734 313.607 54.988L315.147 54.592ZM320.647 62.468C320.317 61.874 318.821 59.41 318.403 58.86L317.347 59.608V57.76H319.921V55.846H317.347V48.564H315.565V55.846H312.507V57.76H315.565V59.256L314.289 58.816C313.937 60.664 313.035 62.908 312.155 64.096C312.463 64.646 312.859 65.57 313.057 66.164C314.201 64.69 315.081 61.83 315.565 59.476V68.738H317.347V59.674C317.853 60.576 318.887 62.908 319.283 63.964L320.647 62.468ZM323.265 63.898C323.309 63.436 323.331 62.952 323.331 62.534H329.513V63.898H323.265ZM329.513 59.784V61.126H323.331V59.784H329.513ZM331.427 58.222H321.483V62.182C321.483 63.898 321.351 66.054 320.053 67.638C320.449 67.858 321.197 68.584 321.483 68.958C322.363 67.946 322.847 66.626 323.067 65.284H329.513V66.736C329.513 66.978 329.425 67.066 329.139 67.066C328.875 67.088 327.973 67.088 327.049 67.044C327.291 67.506 327.533 68.21 327.621 68.694C328.985 68.716 329.975 68.694 330.591 68.408C331.229 68.144 331.427 67.66 331.427 66.758V58.222ZM327.313 55.56V54.328H331.933V52.876H327.313V51.754H332.351V50.258H327.313V48.564H325.333V50.258H320.603V50.566L318.887 49.994C318.601 51.38 317.985 53.404 317.501 54.636L318.799 55.098C319.349 53.976 319.987 52.15 320.603 50.632V51.754H325.333V52.876H321.131V54.328H325.333V55.56H320.317V57.1H332.593V55.56H327.313ZM340.953 50.28C340.161 49.73 338.665 49.026 337.477 48.608L336.421 50.016C337.609 50.478 339.105 51.27 339.853 51.842L340.953 50.28ZM347.333 53.8H343.747V52.414H347.333V53.8ZM347.333 56.44H343.747V55.142H347.333V56.44ZM347.333 59.234H343.747V57.782H347.333V59.234ZM339.237 53.976C339.721 54.306 340.425 54.878 340.777 55.208C341.107 54.922 341.415 54.614 341.745 54.306V61.742H343.747V60.862H354.263V59.234H349.269V57.782H353.185V56.44H349.269V55.142H353.141V53.8H349.269V52.414H353.911V50.852H349.687C349.423 50.214 348.983 49.334 348.631 48.718L346.695 49.224C346.915 49.708 347.201 50.302 347.399 50.852H344.473C344.869 50.258 345.221 49.62 345.529 49.004L343.571 48.41C342.625 50.456 341.041 52.48 339.303 53.778C338.511 53.294 336.971 52.678 335.849 52.304L334.815 53.69C335.981 54.13 337.521 54.856 338.291 55.384L339.237 53.976ZM336.817 61.874C338.159 60.444 339.589 58.772 340.843 57.232L339.721 55.846C338.269 57.54 336.575 59.3 335.387 60.334L336.817 61.874ZM354.835 62.842H345.925V61.324H343.835V62.842H335.123V64.668H343.835V68.76H345.925V64.668H354.835V62.842ZM368.255 54.46H373.601C373.205 54.988 372.699 55.472 372.105 55.912C371.027 55.45 369.927 55.01 368.981 54.658L368.255 55.692C369.025 56 369.861 56.352 370.719 56.726C369.751 57.166 368.695 57.518 367.639 57.738C367.925 58.046 368.299 58.618 368.475 58.992C369.839 58.64 371.181 58.156 372.347 57.452C373.579 58.024 374.723 58.574 375.493 58.992L376.241 57.804C375.581 57.43 374.635 57.012 373.623 56.55C374.569 55.758 375.317 54.79 375.823 53.58L374.833 53.162L374.525 53.206H368.981C370.279 52.436 370.675 51.468 370.741 50.522H373.007V50.918C373.007 52.282 373.293 52.854 374.679 52.854H375.867C376.241 52.854 376.637 52.832 376.879 52.744C376.835 52.348 376.791 51.798 376.747 51.38C376.505 51.446 376.065 51.49 375.801 51.49H374.921C374.657 51.49 374.613 51.358 374.613 50.94V49.092H369.157V50.214C369.157 50.962 368.871 51.688 367.199 52.304C367.485 52.524 368.013 53.118 368.255 53.492V54.46ZM363.283 52.392V53.36V53.382H360.533V54.46H363.063C362.755 55.076 362.095 55.736 360.621 56.154C360.907 56.396 361.303 56.792 361.479 57.122C362.777 56.638 363.569 56 364.009 55.384C364.867 55.912 365.747 56.55 366.209 57.012L367.045 56.11C366.517 55.648 365.549 54.988 364.669 54.46H367.265V53.382H364.625V52.392H366.891V51.358H362.799C362.909 51.138 362.997 50.918 363.085 50.72L361.875 50.434C361.567 51.226 361.039 51.996 360.357 52.634C360.643 52.766 361.193 53.074 361.413 53.272C361.677 53.008 361.919 52.722 362.161 52.392H363.283ZM358.509 56.044C358.509 57.76 359.059 58.398 360.973 58.398H365.549C366.385 58.398 367.265 58.376 367.661 58.266C367.595 57.936 367.529 57.43 367.485 56.99C367.023 57.1 366.033 57.122 365.417 57.122H361.479H361.061C360.291 57.122 360.115 56.858 360.115 56.088V50.434H367.573V49.202H357.827V50.434H358.509V56.044ZM363.063 66.076H371.951V64.998H363.063V66.076ZM368.541 61.258H366.627V60.4H368.541V61.258ZM373.381 62.424V63.348C373.293 63.37 373.205 63.37 373.051 63.37H370.851C370.257 63.37 370.147 63.304 370.147 62.886V62.424H373.381ZM361.347 66.78V62.424H364.911C364.603 62.974 363.701 63.436 361.347 63.656C361.655 63.942 362.051 64.492 362.227 64.822C365.263 64.36 366.341 63.546 366.583 62.424H368.541V62.864C368.541 64.096 368.959 64.382 370.675 64.382H373.271H373.381V66.78H361.347ZM377.407 60.4V59.036H357.299V60.4H365.021V61.258H359.499V68.694H361.347V67.946H373.381V68.694H375.295V61.258H370.147V60.4H377.407ZM392.345 51.38C391.993 51.072 391.531 50.742 391.003 50.412C391.443 49.994 391.817 49.554 392.147 49.114L390.761 48.74C390.519 49.048 390.211 49.4 389.837 49.708C389.353 49.422 388.825 49.158 388.363 48.938L387.373 49.796C387.835 49.994 388.319 50.258 388.759 50.522C388.209 50.918 387.571 51.27 386.955 51.534C387.307 51.754 387.835 52.26 388.077 52.48C388.693 52.172 389.353 51.732 389.969 51.27C390.519 51.622 391.003 51.974 391.333 52.304L392.345 51.38ZM384.007 55.34H386.779C387.087 55.56 387.593 56.066 387.813 56.352H384.051L384.007 55.34ZM382.401 57.892H397.207V60.554H399.231V56.352H397.559C397.735 54.372 397.933 51.556 398.043 49.334H392.807V50.676H396.041L395.997 51.666H392.917V52.986H395.909L395.821 53.998H392.807V55.34H395.733C395.689 55.692 395.645 56.022 395.623 56.352H387.945C388.583 55.978 389.287 55.56 389.925 55.054C390.541 55.472 391.047 55.868 391.399 56.22L392.433 55.274C392.059 54.922 391.575 54.548 390.981 54.152C391.443 53.712 391.839 53.272 392.191 52.81L390.805 52.37C390.541 52.744 390.211 53.096 389.815 53.448C389.309 53.14 388.759 52.854 388.275 52.612L387.285 53.47C387.747 53.69 388.253 53.976 388.715 54.262C388.143 54.658 387.483 55.01 386.867 55.296V53.998H383.897L383.831 52.986H386.779V51.666H383.765L383.699 50.786C384.799 50.588 385.987 50.28 386.933 49.928L386.053 48.718C384.909 49.07 383.017 49.62 381.741 49.84L382.137 56.352H380.465V60.554H382.401V57.892ZM399.605 62.908H391.047V62.732C392.719 62.006 394.435 61.06 395.711 60.07L394.545 59.014L394.105 59.124H384.139V60.62H392.015C391.091 61.192 390.013 61.72 389.045 62.116V62.908H380.025V64.58H389.045V66.626C389.045 66.912 388.935 67 388.583 67C388.253 67 386.977 67 385.767 66.956C386.031 67.44 386.317 68.166 386.427 68.694C388.143 68.694 389.265 68.694 390.057 68.408C390.827 68.144 391.047 67.66 391.047 66.692V64.58H399.605V62.908ZM411.617 59.454C411.111 58.86 408.999 56.506 408.141 55.67V55.098H411.023V53.14H408.141V48.542H406.073V53.14H402.553V55.098H405.809C404.995 57.958 403.455 61.126 401.871 62.93C402.223 63.458 402.729 64.316 402.949 64.91C404.115 63.546 405.215 61.39 406.073 59.08V68.738H408.141V58.068C408.977 59.146 409.901 60.444 410.363 61.214L411.617 59.454ZM422.309 53.14H420.131V48.564H417.975V53.14H411.749V55.098H417.337C415.709 58.442 412.937 61.918 410.231 63.722C410.737 64.118 411.353 64.866 411.705 65.372C413.971 63.656 416.281 60.862 417.975 57.958V66.098C417.975 66.494 417.821 66.626 417.425 66.626C417.029 66.648 415.643 66.648 414.323 66.604C414.609 67.176 414.939 68.122 415.049 68.694C416.919 68.694 418.239 68.65 419.031 68.298C419.823 67.968 420.131 67.396 420.131 66.098V55.098H422.309V53.14ZM439.425 52.612C438.699 51.798 437.181 50.698 435.949 49.95L434.915 51.336C436.169 52.128 437.665 53.316 438.347 54.174L439.425 52.612ZM438.501 57.848C437.709 57.078 436.103 56.044 434.827 55.362L433.859 56.836C435.157 57.54 436.719 58.684 437.467 59.476L438.501 57.848ZM431.901 49.862C431.637 51.336 431.043 53.514 430.581 54.834L431.879 55.23C432.451 53.976 433.111 51.93 433.683 50.258L431.901 49.862ZM427.501 54.856C427.369 53.514 426.907 51.49 426.291 49.928L424.839 50.302C425.367 51.864 425.851 53.932 425.939 55.252L427.501 54.856ZM426.577 58.816C426.225 60.642 425.345 62.886 424.443 64.096C424.795 64.756 425.235 65.79 425.411 66.472C426.665 64.888 427.589 61.808 428.029 59.344L426.577 58.816ZM430.075 59.52V57.76H433.507V55.846H430.075V48.564H428.161V55.846H424.751V57.76H428.161V68.738H430.075V60.136C430.647 61.346 431.571 63.502 431.923 64.624L433.353 63.062C433.023 62.38 431.439 59.498 430.977 58.86L430.075 59.52ZM444.925 62.182L444.639 60.312L442.197 60.73V48.564H440.283V61.082L433.441 62.314L433.771 64.206L440.283 63.018V68.738H442.197V62.666L444.925 62.182ZM461.799 66.472C461.051 66.472 460.919 66.362 460.919 65.68V59.74H466.793V57.76H458.191V53.712H465.165V51.754H458.191V48.542H456.123V51.754H452.691C452.977 50.94 453.219 50.126 453.439 49.378L451.349 48.982C450.865 51.204 449.787 54.152 448.313 55.956C448.819 56.154 449.633 56.594 450.117 56.924C450.799 56.022 451.393 54.9 451.921 53.712H456.123V57.76H447.543V59.74H452.999C452.625 63.018 451.723 65.68 447.213 67.066C447.675 67.506 448.247 68.32 448.489 68.87C453.483 67.044 454.671 63.81 455.155 59.74H458.851V65.68C458.851 67.748 459.379 68.408 461.557 68.408H464.417C466.287 68.408 466.837 67.506 467.035 64.14C466.507 63.986 465.627 63.656 465.187 63.304C465.099 66.032 464.967 66.472 464.241 66.472H461.799ZM485.493 54.658H478.827V53.8H485.493V54.658ZM485.493 56.484H478.827V55.626H485.493V56.484ZM485.493 58.354H478.827V57.452H485.493V58.354ZM476.935 52.81V59.344H487.473V52.81H482.457C482.589 52.524 482.743 52.216 482.897 51.886H489.145V50.434H485.735C486.043 49.95 486.417 49.444 486.769 48.85L484.833 48.52C484.613 49.048 484.173 49.84 483.799 50.434H480.807C480.587 49.862 480.125 49.048 479.663 48.454L478.035 48.894C478.343 49.356 478.651 49.928 478.893 50.434H475.483V51.886H480.961C480.851 52.194 480.741 52.502 480.631 52.81H476.935ZM470.841 62.05C471.699 60.95 472.689 59.894 473.261 59.894C473.745 59.894 474.361 60.422 475.197 60.862C476.627 61.61 478.519 61.786 481.093 61.786C483.359 61.786 487.297 61.676 489.233 61.544C489.255 61.038 489.541 60.18 489.761 59.674C487.429 59.96 483.711 60.136 481.115 60.136C478.783 60.136 476.847 60.048 475.483 59.322C474.735 58.926 474.273 58.596 473.855 58.42C474.537 57.386 475.131 56.132 475.505 54.878L474.515 54.482L474.229 54.57H472.975C473.503 53.58 474.097 52.436 474.603 51.402H471.743L473.415 50.808C473.195 50.192 472.799 49.246 472.469 48.542L470.797 49.048C471.061 49.818 471.479 50.808 471.655 51.424H469.631V52.942H471.919C471.369 54.064 470.753 55.208 470.225 56.088H473.239C472.777 57.166 472.161 58.266 471.479 58.992L471.501 59.014C470.907 59.388 470.291 59.894 469.719 60.444L470.841 62.05ZM484.833 61.83H482.875V62.842H469.807V64.448H474.515L473.393 65.372C474.493 66.076 475.857 67.198 476.451 67.946L477.947 66.67C477.331 66.01 476.187 65.108 475.153 64.448H482.875V66.78C482.875 67.044 482.765 67.11 482.413 67.132C482.083 67.154 480.851 67.154 479.597 67.11C479.883 67.594 480.169 68.342 480.257 68.87C481.973 68.87 483.117 68.848 483.865 68.584C484.657 68.298 484.833 67.792 484.833 66.802V64.448H489.277V62.842H484.833V61.83ZM494.689 52.018H509.297V54.02H511.233V50.39H503.203C502.917 49.752 502.477 48.96 502.015 48.388L500.255 48.894C500.519 49.334 500.827 49.862 501.069 50.39H492.841V54.02H494.689V52.018ZM497.043 63.744H507.031V64.624H497.043V63.744ZM497.043 61.808H507.031V62.666H497.043V61.808ZM497.043 59.916H507.031V60.752H497.043V59.916ZM509.099 65.746V58.794H495.063V65.746H498.825C497.307 66.406 494.667 67.11 492.533 67.396C492.885 67.792 493.391 68.43 493.633 68.804C496.097 68.43 499.089 67.594 500.893 66.626L499.595 65.746H504.061L503.203 66.692C505.711 67.374 508.307 68.232 509.847 68.826L511.233 67.528C509.737 67.022 507.449 66.318 505.205 65.746H509.099ZM502.653 56.902C502.675 56.594 502.719 56.286 502.763 55.956H506.305L506.217 56.902H502.653ZM497.461 55.956H501.047C501.025 56.286 500.981 56.594 500.937 56.902H497.351L497.461 55.956ZM501.245 54.02L501.179 54.856H497.615L497.725 54.02H501.245ZM506.393 54.856H502.873L502.961 54.02H506.459L506.393 54.856ZM508.285 54.658L508.461 52.898H496.053L495.833 54.658H492.159V56.154H495.635L495.393 58.002H507.977L508.153 56.154H511.937V54.658H508.285ZM515.391 67.286C515.765 66.01 516.073 63.898 516.249 62.446L515.149 62.094C514.995 63.524 514.643 65.592 514.203 66.846L515.391 67.286ZM516.579 62.534C516.689 63.766 516.777 65.416 516.777 66.494L517.767 66.384C517.745 65.306 517.657 63.7 517.503 62.424L516.579 62.534ZM517.877 62.314C518.163 63.458 518.471 64.91 518.603 65.9L519.527 65.702C519.395 64.756 519.065 63.282 518.779 62.16L517.877 62.314ZM516.975 57.716H518.647V59.454H516.975V57.716ZM518.647 51.16V52.92H516.975V51.16H518.647ZM518.647 56.132H516.975V54.482H518.647V56.132ZM526.039 53.404C526.941 52.656 527.799 51.82 528.547 50.918C529.383 51.776 530.373 52.656 531.407 53.404H526.039ZM522.849 59.454H520.253V57.716H522.431V56.132H520.253V54.482H522.387V53.844C522.761 54.174 523.333 54.746 523.597 55.098C524.191 54.746 524.763 54.35 525.335 53.954V54.988H531.825V53.712C532.485 54.196 533.189 54.614 533.827 54.966C533.981 54.46 534.355 53.602 534.641 53.14C532.903 52.37 530.857 50.962 529.515 49.62C529.691 49.4 529.823 49.158 529.955 48.916L528.085 48.322C526.963 50.302 524.785 52.392 522.387 53.756V52.92H520.253V51.16H522.761V49.488H515.369V61.148H521.199C521.155 62.534 521.111 63.634 521.067 64.448C520.847 63.722 520.385 62.6 519.967 61.742L519.175 62.006C519.571 62.908 520.033 64.118 520.253 64.888L521.067 64.558C520.957 66.032 520.847 66.692 520.693 66.934C520.561 67.132 520.407 67.176 520.143 67.176C519.901 67.176 519.373 67.176 518.757 67.088C518.999 67.528 519.153 68.188 519.197 68.672C519.857 68.694 520.539 68.694 520.935 68.628C521.463 68.562 521.771 68.408 522.079 67.99C522.541 67.374 522.695 65.46 522.849 60.158V59.454ZM530.395 57.826H532.177V60.268H530.395V57.826ZM528.987 61.632H533.651V56.462H528.987V61.632ZM525.005 57.826H526.655V60.268H525.005V57.826ZM523.619 61.632H528.107V56.462H523.619V61.632ZM525.159 62.182C524.697 64.382 523.773 66.362 522.365 67.572C522.761 67.858 523.443 68.452 523.729 68.738C524.521 67.968 525.247 66.934 525.797 65.768C526.501 66.296 527.249 66.89 527.623 67.352L528.679 66.01C528.195 65.46 527.271 64.778 526.413 64.25C526.589 63.678 526.765 63.128 526.897 62.512L525.159 62.182ZM530.549 62.094C530.153 64.338 529.295 66.34 527.909 67.572C528.349 67.858 529.097 68.43 529.405 68.738C530.021 68.122 530.593 67.352 531.033 66.472C531.891 67.132 532.771 67.858 533.233 68.43L534.465 67.022C533.871 66.406 532.749 65.526 531.737 64.822C532.001 64.074 532.221 63.26 532.375 62.38L530.549 62.094ZM539.459 52.26H554.265V54.394H556.355V50.412H548.369C548.149 49.774 547.709 48.938 547.335 48.3L545.333 48.85C545.597 49.334 545.861 49.884 546.059 50.412H537.457V54.394H539.459V52.26ZM550.547 55.692L549.139 56.616C549.601 57.012 550.129 57.452 550.635 57.892L543.111 58.42C544.211 57.606 545.289 56.66 546.301 55.692H550.547ZM554.925 59.608C554.045 58.486 552.219 56.858 550.723 55.692H554.155V53.932H539.767V55.692H543.683C542.583 56.748 541.505 57.606 541.065 57.892C540.493 58.332 540.009 58.618 539.569 58.684C539.789 59.19 540.053 60.114 540.141 60.51C540.911 60.202 542.033 60.136 552.109 59.3C552.615 59.828 553.033 60.29 553.341 60.708L554.925 59.608ZM547.907 66.318V63.832H554.749V62.072H547.907V60.048H545.817V62.072H539.217V63.832H545.817V66.318H537.281V68.122H556.597V66.318H547.907Z" fill="white"/>
</svg>
