<svg width="407" height="76" viewBox="0 0 407 76" fill="none" xmlns="http://www.w3.org/2000/svg">
<path d="M19.304 28.912V21.676H30.068V17.536H19.304V11.2H31.436V7.024H19.304V0.543999H14.804V7.024H9.26C9.872 5.368 10.448 3.676 10.952 1.948L6.524 0.975998C5.3 5.872 2.96 10.84 0.152 13.864C1.232 14.44 3.14 15.736 4.004 16.42C5.192 15.016 6.308 13.18 7.352 11.2H14.804V17.536H5.048V21.676H14.804V28.912H0.908V33.124H33.272V28.912H19.304ZM47.168 7.168V8.428H43.028V10.444H46.7C46.16 11.308 45.08 12.136 42.992 12.676C43.604 13.108 44.252 13.828 44.648 14.44H43.892C42.632 14.44 42.38 13.972 42.38 12.748V4.036H44.972C44.504 5.152 43.676 6.232 42.668 7.132C43.244 7.42 44.324 8.032 44.792 8.392C45.152 8.032 45.548 7.636 45.872 7.168H47.168ZM39.176 12.64C39.176 15.664 40.112 16.924 43.64 16.924H50.804C52.208 16.924 53.72 16.888 54.44 16.672C54.332 15.988 54.224 15.016 54.152 14.188C53.36 14.368 51.596 14.44 50.516 14.44H45.008C46.844 13.756 47.996 12.892 48.716 11.992C49.94 12.784 51.2 13.72 51.884 14.404L53.54 12.676C52.82 12.064 51.632 11.2 50.408 10.444H53.72V8.428H49.832V7.168H53.144V5.26H47.06C47.204 4.972 47.312 4.72 47.42 4.432L45.764 4.036H54.296V1.588H37.952V4.036H39.176V12.64ZM47.06 27.76V29.848H61.352V27.76H47.06ZM55.628 21.604H53.288V20.488H55.628V21.604ZM63.224 23.836V25.024C63.116 25.024 62.972 25.024 62.792 25.024H59.948C59.084 25.024 58.904 24.952 58.904 24.16V23.836H63.224ZM44.72 30.82V25.708C45.296 26.356 45.908 27.22 46.196 27.796C50.912 27.148 52.856 25.852 53.252 23.836H55.628V24.16C55.628 26.392 56.384 27.004 59.444 27.004H63.224V30.82H44.72ZM49.868 23.836C49.328 24.628 47.96 25.132 44.72 25.384V23.836H49.868ZM56.996 17.752C58.904 17.212 60.74 16.528 62.36 15.628C64.16 16.384 65.852 17.14 67.112 17.752H56.996ZM70.784 20.488V17.752H67.688L69.02 15.556C67.976 15.052 66.5 14.44 64.916 13.792C66.428 12.46 67.616 10.876 68.408 8.896L66.356 8.068L65.744 8.176H57.392C59.048 7.06 59.696 5.692 59.876 4.252H62.972C63.008 6.664 63.656 7.708 66.284 7.708H68.12C68.768 7.708 69.524 7.672 69.992 7.528C69.848 6.7 69.776 5.584 69.74 4.756C69.308 4.9 68.48 4.936 68.048 4.936H66.788C66.356 4.936 66.284 4.684 66.284 4V1.408H56.708V3.244C56.708 4.468 56.276 5.548 53.504 6.52C53.972 6.844 54.8 7.744 55.34 8.428V10.588H63.872C63.26 11.344 62.54 11.992 61.748 12.568C59.948 11.92 58.22 11.272 56.672 10.732L55.232 12.784C56.348 13.216 57.572 13.684 58.76 14.188C57.392 14.728 55.88 15.16 54.296 15.448C54.836 15.988 55.556 16.996 55.916 17.752H37.34V20.488H50.048V21.604H40.868V34.06H44.72V33.016H63.224V34.06H67.22V21.604H58.904V20.488H70.784ZM85.364 24.448C85.796 23.836 86.192 23.224 86.588 22.576H92.456V24.448H85.364ZM85.868 12.964C88.388 12.424 91.016 11.812 93.608 11.128C95.876 11.74 98.036 12.352 99.8 12.964H85.868ZM98.576 6.736C97.244 7.312 95.588 7.888 93.86 8.356C91.484 7.78 89.108 7.24 86.84 6.736H98.576ZM96.668 29.812V27.724H104.516V24.448H96.668V22.576H105.56V19.228H96.668V17.032H92.456V19.228H88.28C88.496 18.724 88.676 18.256 88.856 17.788L85.22 16.708C84.32 19.192 82.844 21.496 81.116 23.188C81.26 21.82 81.296 20.56 81.296 19.408V16.384H107.432V12.964H102.14L104.156 11.308C102.536 10.768 100.592 10.192 98.468 9.616C100.088 9.04 101.6 8.428 102.896 7.816L101.168 6.736H106.388V3.388H93.932C93.32 2.308 92.348 1.048 91.52 0.111999L88.64 1.516C89.072 2.056 89.576 2.704 90.008 3.388H77.48V6.736H83.672L81.656 8.284C83.78 8.68 86.12 9.184 88.388 9.76C85.616 10.408 82.772 10.912 80.18 11.308C80.684 11.704 81.404 12.352 81.98 12.964H77.12V19.372C77.12 23.08 76.832 28.192 73.916 31.792C74.816 32.26 76.58 33.772 77.228 34.564C79.604 31.648 80.648 27.508 81.08 23.764C81.692 24.772 82.52 26.572 82.772 27.328C83.456 26.68 84.176 25.96 84.824 25.132V27.724H92.456V29.812H81.548V33.268H108.008V29.812H96.668ZM122.192 27.148C119.996 28.48 115.82 29.704 112.22 30.208C113.084 31 114.2 32.404 114.74 33.304C118.448 32.44 122.768 30.568 125.216 28.516L122.192 27.148ZM131.876 28.948C134.9 30.208 139.112 32.116 141.2 33.304L144.224 30.964C141.92 29.812 137.672 28.012 134.756 26.932L131.876 28.948ZM133.388 9.724C132.884 10.588 132.128 11.668 131.552 12.496L132.848 12.892H123.02L124.964 12.424C124.676 11.668 124.1 10.624 123.524 9.724H133.388ZM130.328 22.432V20.848H141.128V17.752H130.328V16.132H142.82V12.892H135.872C136.52 12.244 137.276 11.452 138.068 10.588L134.684 9.724H144.188V6.376H139.544C140.444 5.116 141.416 3.496 142.424 1.84L137.924 0.795998C137.42 2.344 136.448 4.54 135.62 5.98L136.916 6.376H133.712V0.507998H129.68V6.376H126.98V0.507998H123.02V6.376H119.708L121.436 5.728C120.968 4.36 119.78 2.2 118.7 0.687998L115.028 1.912C115.856 3.28 116.792 5.008 117.332 6.376H112.436V9.724H121.616L119.204 10.264C119.672 11.056 120.212 12.064 120.536 12.892H113.912V16.132H126.08V17.752H115.712V20.848H126.08V22.432H112.364V25.96H126.08V34.168H130.328V25.96H144.296V22.432H130.328ZM157.94 26.032H154.7V17.032H157.94V26.032ZM162.044 6.088V2.2H148.976V6.088H152.792C151.892 10.804 150.416 15.16 148.22 18.112C148.796 19.336 149.516 22.072 149.66 23.224C150.164 22.612 150.668 21.928 151.136 21.244V32.44H154.7V29.812H161.576V13.252H154.844C155.636 10.948 156.284 8.5 156.752 6.088H162.044ZM170.252 15.16V6.268H174.284V15.16H170.252ZM182.132 15.16H178.352V6.268H181.412V2.308H163.772V6.268H166.256V15.16H162.836V19.192H166.184C165.968 23.584 165.068 28.588 161.972 31.936C162.944 32.476 164.492 33.664 165.212 34.42C168.92 30.496 169.964 24.484 170.18 19.192H174.284V34.168H178.352V19.192H182.132V15.16ZM211.04 24.52C210.392 25.456 209.636 26.284 208.772 27.04C207.152 26.14 205.496 25.312 203.984 24.52H211.04ZM213.596 21.568L212.948 21.676H201.248V24.52H202.112L200.672 26.248C202.22 27.076 203.912 28.048 205.676 29.02C203.804 29.956 201.608 30.64 199.268 31.036C199.952 31.828 200.708 33.196 201.068 34.132C204.056 33.448 206.828 32.44 209.096 31.036C211.04 32.188 212.768 33.304 213.992 34.168L216.152 31.324C215.072 30.604 213.596 29.704 211.976 28.804C213.704 27.112 215.036 25.024 215.936 22.396L213.596 21.568ZM215.468 4.288C214.496 5.44 212.84 6.952 211.472 8.032C210.824 7.528 210.176 6.988 209.564 6.412C210.932 5.44 212.48 4.144 213.956 2.92L210.896 0.723999C210.032 1.732 208.7 3.028 207.512 4.036C206.684 3.028 206 1.876 205.46 0.651998L202.04 1.66C203.768 5.512 206.18 8.716 209.312 11.2H202.436V13.756C202.436 15.376 202.112 17.104 199.88 18.58V11.416H195.164C198.08 9.22 200.492 6.412 201.932 2.884L199.304 1.588L198.584 1.768H189.188V5.116H196.28C195.668 5.944 194.948 6.7 194.192 7.42C193.148 6.628 191.636 5.764 190.412 5.152L187.964 7.42C189.044 8.032 190.34 8.86 191.312 9.58C189.44 10.768 187.388 11.74 185.264 12.352C186.02 13.108 187.064 14.548 187.568 15.484C188.684 15.088 189.764 14.62 190.844 14.08V14.656H196.064V17.176H189.692C189.368 20.02 188.792 23.584 188.288 25.924H195.848C195.596 28.372 195.272 29.524 194.84 29.92C194.516 30.244 194.12 30.28 193.544 30.28C192.752 30.28 190.988 30.244 189.188 30.1C189.836 31.072 190.34 32.548 190.412 33.664C192.32 33.736 194.192 33.736 195.164 33.628C196.424 33.556 197.288 33.268 198.044 32.44C198.98 31.504 199.412 29.164 199.808 24.304C199.844 23.8 199.88 22.828 199.88 22.828H192.392C192.5 22.036 192.608 21.172 192.752 20.344H199.88V19.264C200.6 19.912 201.644 20.956 202.04 21.568C205.028 19.66 205.892 16.96 206 14.44H209.312V16.528C209.312 19.444 209.888 20.668 212.912 20.668H215.144C215.9 20.668 216.728 20.632 217.232 20.452C217.088 19.624 217.016 18.4 216.944 17.536C216.476 17.68 215.612 17.716 215.108 17.716H213.344C212.876 17.716 212.804 17.428 212.804 16.564V13.468C214.1 14.152 215.432 14.728 216.908 15.196C217.484 14.152 218.564 12.64 219.464 11.812C217.628 11.308 215.9 10.624 214.316 9.796C215.648 8.86 217.196 7.708 218.564 6.484L215.468 4.288ZM241.676 18.688V10.948H249.812V18.688H241.676ZM229.04 18.688V10.948H237.14V18.688H229.04ZM241.676 6.736V0.507998H237.14V6.736H224.72V24.88H229.04V22.9H237.14V34.132H241.676V22.9H249.812V24.7H254.312V6.736H241.676ZM270.44 4C273.788 6.268 278.216 9.688 280.16 11.884L283.328 8.536C281.168 6.304 276.596 3.136 273.356 1.084L270.44 4ZM285.056 13.36C286.928 17.572 288.8 23.26 289.34 26.932L293.696 25.132C292.94 21.424 291.068 16.024 289.052 11.74L285.056 13.36ZM262.736 12.892C262.268 17.68 261.224 23.08 259.964 26.896L264.284 28.624C265.508 24.556 266.408 18.328 266.912 13.684L262.736 12.892ZM269.216 10.768V27.472C269.216 32.008 270.512 33.448 275.192 33.448H281.168C285.596 33.448 286.748 31.324 287.252 24.484C286.064 24.196 284.228 23.44 283.22 22.684C282.968 28.3 282.644 29.452 280.844 29.452H275.696C273.968 29.452 273.68 29.164 273.68 27.472V10.768H269.216Z" fill="#020D46"/>
<path d="M1.184 70H7.52C11.432 70 14.408 68.344 14.408 64.768C14.408 62.368 12.992 61.024 11.072 60.568V60.448C12.584 59.92 13.496 58.24 13.496 56.608C13.496 53.296 10.712 52.24 7.064 52.24H1.184V70ZM4.736 59.464V54.952H6.848C8.984 54.952 10.04 55.576 10.04 57.136C10.04 58.552 9.056 59.464 6.8 59.464H4.736ZM4.736 67.264V62.104H7.208C9.656 62.104 10.952 62.824 10.952 64.552C10.952 66.4 9.632 67.264 7.208 67.264H4.736ZM18.1919 70H21.6959V56.56H18.1919V70ZM19.9679 54.4C21.1679 54.4 22.0559 53.584 22.0559 52.48C22.0559 51.328 21.1679 50.56 19.9679 50.56C18.7439 50.56 17.8559 51.328 17.8559 52.48C17.8559 53.584 18.7439 54.4 19.9679 54.4ZM32.057 70.336C35.417 70.336 38.513 67.744 38.513 63.304C38.513 58.816 35.417 56.224 32.057 56.224C28.697 56.224 25.601 58.816 25.601 63.304C25.601 67.744 28.697 70.336 32.057 70.336ZM32.057 67.456C30.233 67.456 29.201 65.824 29.201 63.304C29.201 60.76 30.233 59.104 32.057 59.104C33.881 59.104 34.913 60.76 34.913 63.304C34.913 65.824 33.881 67.456 32.057 67.456ZM42.4244 70H45.9284V60.76C46.8884 59.752 47.7524 59.248 48.5204 59.248C49.7924 59.248 50.3924 59.992 50.3924 62.056V70H53.9204V60.76C54.8804 59.752 55.7444 59.248 56.5124 59.248C57.7844 59.248 58.3844 59.992 58.3844 62.056V70H61.9124V61.624C61.9124 58.24 60.5924 56.224 57.7364 56.224C55.9844 56.224 54.6884 57.28 53.4644 58.576C52.8164 57.088 51.6884 56.224 49.7684 56.224C48.0164 56.224 46.7684 57.184 45.6404 58.36H45.5444L45.3044 56.56H42.4244V70ZM72.3492 70.336C74.0292 70.336 75.7332 69.76 77.0532 68.848L75.8532 66.688C74.8932 67.288 73.9332 67.624 72.8292 67.624C70.8372 67.624 69.3972 66.472 69.1092 64.264H77.3892C77.4852 63.952 77.5572 63.304 77.5572 62.656C77.5572 58.936 75.6372 56.224 71.9412 56.224C68.7252 56.224 65.6772 58.936 65.6772 63.304C65.6772 67.72 68.6052 70.336 72.3492 70.336ZM69.0612 61.936C69.3252 59.968 70.5732 58.96 71.9892 58.96C73.7172 58.96 74.5332 60.112 74.5332 61.936H69.0612ZM86.1506 70.336C87.5426 70.336 88.8866 69.568 89.8706 68.608H89.9426L90.2306 70H93.0866V50.848H89.5586V55.576L89.7026 57.688C88.7426 56.8 87.8066 56.224 86.2946 56.224C83.3906 56.224 80.6546 58.912 80.6546 63.304C80.6546 67.696 82.8146 70.336 86.1506 70.336ZM87.0626 67.432C85.2866 67.432 84.2786 66.04 84.2786 63.256C84.2786 60.568 85.5506 59.128 87.0626 59.128C87.9026 59.128 88.7426 59.392 89.5586 60.136V66.04C88.7906 67.048 87.9986 67.432 87.0626 67.432ZM97.8279 70H101.332V56.56H97.8279V70ZM99.6039 54.4C100.804 54.4 101.692 53.584 101.692 52.48C101.692 51.328 100.804 50.56 99.6039 50.56C98.3799 50.56 97.4919 51.328 97.4919 52.48C97.4919 53.584 98.3799 54.4 99.6039 54.4ZM111.789 70.336C113.277 70.336 114.909 69.832 116.181 68.704L114.789 66.376C114.045 67 113.133 67.456 112.173 67.456C110.229 67.456 108.837 65.824 108.837 63.304C108.837 60.76 110.229 59.104 112.269 59.104C113.037 59.104 113.661 59.416 114.333 59.992L116.013 57.712C115.029 56.872 113.757 56.224 112.101 56.224C108.453 56.224 105.237 58.816 105.237 63.304C105.237 67.744 108.069 70.336 111.789 70.336ZM122.724 70.336C124.26 70.336 125.604 69.568 126.78 68.56H126.852L127.116 70H129.996V62.152C129.996 58.264 128.244 56.224 124.836 56.224C122.724 56.224 120.804 57.016 119.22 58L120.492 60.328C121.74 59.608 122.94 59.056 124.188 59.056C125.844 59.056 126.42 60.064 126.468 61.384C121.068 61.96 118.74 63.472 118.74 66.352C118.74 68.632 120.324 70.336 122.724 70.336ZM123.876 67.576C122.844 67.576 122.1 67.12 122.1 66.064C122.1 64.864 123.204 63.976 126.468 63.544V66.256C125.628 67.096 124.884 67.576 123.876 67.576ZM137.864 70.336C138.68 70.336 139.28 70.192 139.688 70.024L139.256 67.408C139.016 67.456 138.92 67.456 138.776 67.456C138.44 67.456 138.056 67.192 138.056 66.4V50.848H134.552V66.232C134.552 68.728 135.416 70.336 137.864 70.336ZM149.767 70H153.319V52.24H149.767V70ZM158.361 70H161.865V60.76C162.873 59.776 163.569 59.248 164.673 59.248C165.993 59.248 166.569 59.992 166.569 62.056V70H170.097V61.624C170.097 58.24 168.849 56.224 165.945 56.224C164.121 56.224 162.753 57.184 161.577 58.336H161.481L161.241 56.56H158.361V70ZM179.424 70.336C180.816 70.336 182.16 69.568 183.144 68.608H183.216L183.504 70H186.36V50.848H182.832V55.576L182.976 57.688C182.016 56.8 181.08 56.224 179.568 56.224C176.664 56.224 173.928 58.912 173.928 63.304C173.928 67.696 176.088 70.336 179.424 70.336ZM180.336 67.432C178.56 67.432 177.552 66.04 177.552 63.256C177.552 60.568 178.824 59.128 180.336 59.128C181.176 59.128 182.016 59.392 182.832 60.136V66.04C182.064 67.048 181.272 67.432 180.336 67.432ZM195.086 70.336C196.934 70.336 198.23 69.448 199.382 68.08H199.478L199.742 70H202.622V56.56H199.094V65.632C198.182 66.832 197.462 67.312 196.358 67.312C195.062 67.312 194.486 66.592 194.486 64.504V56.56H190.958V64.96C190.958 68.32 192.206 70.336 195.086 70.336ZM211.183 70.336C214.687 70.336 216.535 68.44 216.535 66.088C216.535 63.592 214.567 62.704 212.791 62.032C211.375 61.504 210.055 61.144 210.055 60.16C210.055 59.392 210.631 58.864 211.831 58.864C212.839 58.864 213.775 59.344 214.735 60.016L216.319 57.88C215.191 57.04 213.703 56.224 211.735 56.224C208.711 56.224 206.743 57.928 206.743 60.352C206.743 62.584 208.711 63.616 210.415 64.264C211.831 64.816 213.223 65.272 213.223 66.28C213.223 67.12 212.623 67.696 211.279 67.696C210.031 67.696 208.879 67.168 207.679 66.232L206.071 68.44C207.391 69.544 209.383 70.336 211.183 70.336ZM224.543 70.336C225.719 70.336 226.655 70.072 227.375 69.832L226.799 67.264C226.439 67.408 225.911 67.552 225.479 67.552C224.279 67.552 223.655 66.832 223.655 65.296V59.344H226.967V56.56H223.655V52.96H220.703L220.295 56.56L218.231 56.728V59.344H220.127V65.296C220.127 68.32 221.351 70.336 224.543 70.336ZM230.661 70H234.165V61.984C234.933 60.04 236.205 59.344 237.261 59.344C237.813 59.344 238.197 59.416 238.653 59.56L239.277 56.512C238.869 56.344 238.437 56.224 237.693 56.224C236.301 56.224 234.861 57.184 233.877 58.936H233.781L233.541 56.56H230.661V70ZM243.579 75.4C246.579 75.4 248.019 73.576 249.195 70.408L253.971 56.56H250.587L248.739 62.8C248.427 64.048 248.091 65.344 247.779 66.592H247.659C247.275 65.296 246.939 64 246.531 62.8L244.395 56.56H240.843L246.075 69.76L245.835 70.552C245.451 71.728 244.683 72.592 243.315 72.592C243.003 72.592 242.619 72.496 242.379 72.424L241.731 75.136C242.259 75.304 242.787 75.4 243.579 75.4ZM267.381 55.048H269.685C271.965 55.048 273.213 55.696 273.213 57.616C273.213 59.512 271.965 60.472 269.685 60.472H267.381V55.048ZM277.461 70L273.309 62.728C275.349 61.936 276.693 60.28 276.693 57.616C276.693 53.536 273.741 52.24 270.021 52.24H263.829V70H267.381V63.28H269.853L273.501 70H277.461ZM283.045 65.08C283.045 64.12 283.645 63.328 284.509 62.584C285.637 64.072 287.005 65.488 288.517 66.736C287.677 67.288 286.789 67.624 285.925 67.624C284.221 67.624 283.045 66.592 283.045 65.08ZM284.821 56.416C284.821 55.096 285.565 54.256 286.597 54.256C287.533 54.256 287.941 54.904 287.941 55.792C287.941 57.088 286.861 57.952 285.469 58.792C285.061 57.952 284.821 57.16 284.821 56.416ZM296.221 67.456C295.309 67.288 294.229 66.832 293.077 66.184C294.445 64.336 295.429 62.272 296.077 60.088H292.885C292.405 61.84 291.637 63.352 290.701 64.6C289.285 63.52 287.917 62.224 286.861 60.904C288.757 59.584 290.677 58.12 290.677 55.768C290.677 53.44 289.069 51.904 286.549 51.904C283.693 51.904 281.893 53.944 281.893 56.416C281.893 57.592 282.301 58.912 283.021 60.256C281.245 61.384 279.685 62.824 279.685 65.296C279.685 68.056 281.773 70.336 285.493 70.336C287.677 70.336 289.477 69.616 290.941 68.464C292.429 69.4 293.965 70.024 295.357 70.336L296.221 67.456ZM299.851 70H304.915C310.147 70 313.507 67.024 313.507 61.048C313.507 55.048 310.147 52.24 304.723 52.24H299.851V70ZM303.403 67.144V55.072H304.507C307.819 55.072 309.883 56.704 309.883 61.048C309.883 65.368 307.819 67.144 304.507 67.144H303.403ZM331.589 70.336C333.893 70.336 335.789 69.424 337.253 67.72L335.381 65.512C334.421 66.544 333.221 67.264 331.709 67.264C328.901 67.264 327.077 64.936 327.077 61.072C327.077 57.256 329.093 54.952 331.781 54.952C333.125 54.952 334.157 55.576 335.045 56.44L336.917 54.184C335.765 52.984 333.965 51.904 331.709 51.904C327.221 51.904 323.453 55.336 323.453 61.192C323.453 67.12 327.101 70.336 331.589 70.336ZM346.619 70.336C348.299 70.336 350.003 69.76 351.323 68.848L350.123 66.688C349.163 67.288 348.203 67.624 347.099 67.624C345.107 67.624 343.667 66.472 343.379 64.264H351.659C351.755 63.952 351.827 63.304 351.827 62.656C351.827 58.936 349.907 56.224 346.211 56.224C342.995 56.224 339.947 58.936 339.947 63.304C339.947 67.72 342.875 70.336 346.619 70.336ZM343.331 61.936C343.595 59.968 344.843 58.96 346.259 58.96C347.987 58.96 348.803 60.112 348.803 61.936H343.331ZM355.692 70H359.196V60.76C360.204 59.776 360.9 59.248 362.004 59.248C363.324 59.248 363.9 59.992 363.9 62.056V70H367.428V61.624C367.428 58.24 366.18 56.224 363.276 56.224C361.452 56.224 360.084 57.184 358.908 58.336H358.812L358.572 56.56H355.692V70ZM376.947 70.336C378.123 70.336 379.059 70.072 379.779 69.832L379.203 67.264C378.843 67.408 378.315 67.552 377.883 67.552C376.683 67.552 376.059 66.832 376.059 65.296V59.344H379.371V56.56H376.059V52.96H373.107L372.699 56.56L370.635 56.728V59.344H372.531V65.296C372.531 68.32 373.755 70.336 376.947 70.336ZM388.452 70.336C390.132 70.336 391.836 69.76 393.156 68.848L391.956 66.688C390.996 67.288 390.036 67.624 388.932 67.624C386.94 67.624 385.5 66.472 385.212 64.264H393.492C393.588 63.952 393.66 63.304 393.66 62.656C393.66 58.936 391.74 56.224 388.044 56.224C384.828 56.224 381.78 58.936 381.78 63.304C381.78 67.72 384.708 70.336 388.452 70.336ZM385.164 61.936C385.428 59.968 386.676 58.96 388.092 58.96C389.82 58.96 390.636 60.112 390.636 61.936H385.164ZM397.525 70H401.029V61.984C401.797 60.04 403.069 59.344 404.125 59.344C404.677 59.344 405.061 59.416 405.517 59.56L406.141 56.512C405.733 56.344 405.301 56.224 404.557 56.224C403.165 56.224 401.725 57.184 400.741 58.936H400.645L400.405 56.56H397.525V70Z" fill="#020D46" fill-opacity="0.8"/>
</svg>
